# xmcd
#
# Track frame offsets:
#	182
#	24495
#	47072
#	63477
#
# Disc length: 1149 seconds
#
# Revision: 3
# Processed by: cddbd v1.4PL0 Copyright (c) Steve Scherf et al.
# Submitted via: dBpowerAMP V4.0
#
DISCID=2e047b04
DTITLE=Technotronic Featuring Kelly - SingleCD
DYEAR=1989
DGENRE=Top 40
TTITLE0=Pump Up The Jam Vocal Attack (124 Bpm Eurodance House Pop)
TTITLE1=Pump Up The Jam Jam Edit Mix (124 Bpm Eurodance House Pop)
TTITLE2=Pump Up The Jam 7" Version (124 Bpm Eurodance House Pop)
TTITLE3=Pump Up The Jam Original Mix (124 Bpm Eurodance House Pop)
EXTD=
EXTT0=
EXTT1=
EXTT2=
EXTT3=
PLAYORDER=
